<?xml version="1.0" encoding="UTF-8" standalone="no"?>
<svg
   viewBox="0 0 760 520"
   role="img"
   aria-labelledby="mission-illustration-title"
   version="1.1"
   id="svg23"
   sodipodi:docname="mission-illustration2.svg"
   inkscape:version="1.4.4 (dcaf3e7d9e, 2026-05-05)"
   xmlns:inkscape="http://www.inkscape.org/namespaces/inkscape"
   xmlns:sodipodi="http://sodipodi.sourceforge.net/DTD/sodipodi-0.dtd"
   xmlns="http://www.w3.org/2000/svg"
   xmlns:svg="http://www.w3.org/2000/svg"
   xmlns:rdf="http://www.w3.org/1999/02/22-rdf-syntax-ns#"
   xmlns:cc="http://creativecommons.org/ns#"
   xmlns:dc="http://purl.org/dc/elements/1.1/">
  <sodipodi:namedview
     id="namedview23"
     pagecolor="#ffffff"
     bordercolor="#666666"
     borderopacity="1.0"
     inkscape:showpageshadow="2"
     inkscape:pageopacity="0.0"
     inkscape:pagecheckerboard="0"
     inkscape:deskcolor="#d1d1d1"
     inkscape:zoom="1.2736842"
     inkscape:cx="314.83471"
     inkscape:cy="346.63223"
     inkscape:window-width="1920"
     inkscape:window-height="1011"
     inkscape:window-x="26"
     inkscape:window-y="23"
     inkscape:window-maximized="0"
     inkscape:current-layer="svg23" />
  <title
     id="mission-illustration-title">Rose et Papa ramassent des déchets à vélo à Voreppe</title>
  <defs
     id="defs1">
    <style
       id="style1">
      @font-face {
        font-family: &quot;Gaegu&quot;;
        src: url(&quot;/fonts/gaegu/Gaegu-Bold.ttf&quot;) format(&quot;truetype&quot;);
        font-weight: 700 800;
      }

      text {
        font-family: &quot;Gaegu&quot;, &quot;Trebuchet MS&quot;, &quot;Comic Sans MS&quot;, sans-serif;
      }
    </style>
  </defs>
  <rect
     width="760"
     height="520"
     rx="32"
     fill="#bdeaff"
     id="rect1" />
  <circle
     cx="650"
     cy="82"
     r="48"
     fill="#ffd86b"
     stroke="#e8a823"
     stroke-width="6"
     id="circle1" />
  <g
     fill="#ffffff"
     opacity="0.9"
     stroke="#78bfe4"
     stroke-width="5"
     id="g2">
    <path
       d="M76 112c18-30 61-30 79 0 25-8 54 8 61 34H34c4-22 22-36 42-34Z"
       id="path1" />
    <path
       d="M520 154c14-23 47-24 63-1 20-6 43 7 48 27H486c3-17 17-28 34-26Z"
       id="path2" />
  </g>
  <path
     d="M0 355c93-88 202-105 326-54 103 43 209 17 434-54v273H0Z"
     fill="#7ccf8a"
     id="path3" />
  <path
     d="M0 356c93-88 202-105 326-54 103 43 209 17 434-54"
     fill="none"
     stroke="#2d7d4a"
     stroke-width="7"
     stroke-linecap="round"
     id="path4" />
  <path
     d="M236 520c58-80 116-132 179-156 63-23 118-19 173 20"
     fill="none"
     stroke="#e8c488"
     stroke-width="62"
     stroke-linecap="round"
     id="path5" />
  <path
     d="M236 520c58-80 116-132 179-156 63-23 118-19 173 20"
     fill="none"
     stroke="#fff7df"
     stroke-width="44"
     stroke-linecap="round"
     id="path6" />
  <rect
     x="78"
     y="240"
     width="138"
     height="58"
     rx="18"
     fill="#fff7df"
     stroke="#244032"
     stroke-width="5"
     id="rect6" />
  <path
     d="m 102,300 v 35 m 88,-35 v 35"
     stroke="#244032"
     stroke-width="7"
     stroke-linecap="round"
     id="path7" />
  <text
     x="147"
     y="278"
     text-anchor="middle"
     font-size="26px"
     font-weight="800"
     fill="#2d7d4a"
     id="text7"
     style="font-style:normal;font-variant:normal;font-weight:bold;font-stretch:normal;font-family:Gaegu;-inkscape-font-specification:'Gaegu Bold';font-size:29.33333333px">Voreppe</text>
  <g
     transform="translate(548 276)"
     id="g8">
    <rect
       x="24"
       y="42"
       width="72"
       height="104"
       rx="12"
       fill="#67b7e8"
       stroke="#244032"
       stroke-width="6"
       id="rect7" />
    <rect
       x="12"
       y="24"
       width="96"
       height="24"
       rx="10"
       fill="#3b82bd"
       stroke="#244032"
       stroke-width="6"
       id="rect8" />
    <path
       d="M48 66v56M72 66v56"
       stroke="#ffffff"
       stroke-width="6"
       opacity="0.6"
       stroke-linecap="round"
       id="path8" />
  </g>
  <circle
     cx="178"
     cy="432"
     r="31"
     fill="#ffffff"
     stroke="#3b82bd"
     id="circle8"
     style="stroke-width:7;stroke-linecap:round;stroke-linejoin:round" />
  <circle
     cx="302"
     cy="432"
     r="31"
     fill="#ffffff"
     stroke="#3b82bd"
     id="circle9"
     style="stroke-width:7;stroke-linecap:round;stroke-linejoin:round" />
  <path
     d="m 178,432 50,-66 74,66 H 178 250.23554 L 260,377"
     fill="none"
     id="path9"
     style="stroke:#244032;stroke-width:7;stroke-linecap:round;stroke-linejoin:round"
     sodipodi:nodetypes="cccccc" />
  <path
     d="m 247,366 h 38 m -17.5,0 -7.5,11"
     id="path10"
     style="stroke:#244032;stroke-width:7;stroke-linecap:round;stroke-linejoin:round"
     sodipodi:nodetypes="cccc" />
  <path
     d="M 245.5,343.36936 201.85124,381"
     id="path11"
     style="stroke:#244032;stroke-width:7;stroke-linecap:round;stroke-linejoin:round"
     sodipodi:nodetypes="cc" />
  <circle
     cx="362"
     cy="356"
     r="20"
     fill="#ffd1a8"
     id="circle11"
     style="stroke:#244032;stroke-width:6;stroke-linecap:round" />
  <path
     d="m 336,349 c 12,-21 35,-18 49,-5"
     fill="none"
     id="path12"
     style="stroke:#69673b;stroke-width:6;stroke-linecap:round;stroke-opacity:1" />
  <path
     d="m 362,378 v 72 m 0,-52 -30,24 m 30,-20 34,19 m -34,29 -23,40 m 23,-40 27,40"
     id="path13"
     style="stroke:#244032;stroke-width:6;stroke-linecap:round" />
  <path
     d="m 345,383 h 36 v 58 h -36 z"
     fill="#ff95bc"
     stroke-linejoin="round"
     id="path14"
     style="stroke:#244032;stroke-width:6;stroke-linecap:round" />
  <text
     x="362"
     y="320"
     text-anchor="middle"
     font-size="22px"
     font-weight="800"
     fill="#bf2f62"
     stroke="none"
     id="text14"
     style="font-style:normal;font-variant:normal;font-weight:bold;font-stretch:normal;font-size:24px;font-family:Gaegu;-inkscape-font-specification:'Gaegu Bold';stroke-width:6;stroke-linecap:round">Rose</text>
  <g
     transform="translate(438,300)"
     stroke="#244032"
     stroke-width="7"
     stroke-linecap="round"
     id="g16">
    <circle
       cx="42"
       cy="28"
       r="24"
       fill="#ffd1a8"
       id="circle14" />
    <path
       d="m 42,54 v 96 M 42,80 0,109 m 42,-25 48,26 m -48,40 -30,50 m 30,-50 34,50"
       id="path15" />
    <path
       d="m 22,58 h 43 v 76 H 22 Z"
       fill="#ffcf5d"
       stroke-linejoin="round"
       id="path16" />
    <text
       x="42"
       y="-10"
       text-anchor="middle"
       font-size="22px"
       font-weight="800"
       fill="#8a6a13"
       stroke="none"
       id="text16"
       style="font-style:normal;font-variant:normal;font-weight:bold;font-stretch:normal;font-size:24px;font-family:Gaegu;-inkscape-font-specification:'Gaegu Bold'">Papa</text>
  </g>
  <path
     d="m 276,476 c 10,-55 43,-80 70,-55 20,18 24,49 18,75 h -78 z"
     fill="#d9e7f0"
     id="path17"
     style="stroke:#244032;stroke-width:5" />
  <path
     d="m 314.10333,412 c 13,-12 17.61909,-16.83885 30.61909,-5.83885"
     fill="none"
     stroke-linecap="round"
     id="path18"
     style="stroke:#244032;stroke-width:5"
     sodipodi:nodetypes="cc" />
  <path
     d="m 362,478 c 10,-56 45,-82 72,-56 20,19 24,50 17,76 h -79 z"
     fill="#d9e7f0"
     id="path19"
     style="stroke:#244032;stroke-width:5" />
  <text
     x="364"
     y="514"
     text-anchor="middle"
     font-size="23px"
     font-weight="800"
     fill="#315944"
     stroke="none"
     id="text20"
     style="font-style:normal;font-variant:normal;font-weight:bold;font-stretch:normal;font-family:Gaegu;-inkscape-font-specification:'Gaegu Bold';stroke-width:5">2 sacs deja pleins !</text>
  <g
     fill="#ff7aa8"
     opacity="0.9"
     id="g23">
    <text
       x="110"
       y="180"
       font-size="38"
       id="text21"
       style="-inkscape-font-specification:'Gaegu Bold';font-family:Gaegu;font-weight:bold;font-style:normal;font-stretch:normal;font-variant:normal">♥</text>
    <text
       x="626"
       y="214"
       font-size="31"
       id="text22"
       style="-inkscape-font-specification:'Gaegu Bold';font-family:Gaegu;font-weight:bold;font-style:normal;font-stretch:normal;font-variant:normal">♥</text>
    <text
       x="690"
       y="292"
       font-size="26"
       id="text23"
       style="-inkscape-font-specification:'Gaegu Bold';font-family:Gaegu;font-weight:bold;font-style:normal;font-stretch:normal;font-variant:normal">♥</text>
  </g>
  <text
     xml:space="preserve"
     style="font-size:16px;line-height:1.25;font-family:Gaegu;-inkscape-font-specification:'Gaegu Bold';text-align:center;text-anchor:middle;font-weight:bold;font-style:normal;font-stretch:normal;font-variant:normal"
     x="300.5"
     y="269"
     id="text24"><tspan
       sodipodi:role="line"
       id="tspan23"
       x="300.5"
       y="269" /></text>
  <metadata
     id="metadata24">
    <rdf:RDF>
      <cc:Work
         rdf:about="">
        <dc:title>Rose et Papa ramassent des déchets à vélo à Voreppe</dc:title>
      </cc:Work>
    </rdf:RDF>
  </metadata>
</svg>
